/* XPM */
static char * icon_xpm[] = {
"96 96 10 1",
" 	c None",
".	c #1E41B9",
"+	c #000000",
"@	c #AFDC64",
"#	c #B5D164",
"$	c #BBC664",
"%	c #4684C8",
"&	c #FFFFFF",
"*	c #00FF00",
"=	c #0000FF",
"......+@@@@@@@@@@@@@@@@@@@@@@@@@@@@@@@@@@@@@@@@@+#############################+$$$$$$$$$$$$$$$$$",
"......+@@@@@@@@@@@@@@@@@@@@@@@@@@@@@@@@@@@@@@@@@+#############################+$$$$$$$$$$$$$$$$$",
".....+@@@@@@@@@@@@@@@@@@@@@@@@@@@@@@@@@@@@@@@@@@@+###########################+$$$$$$$$$$$$$$$$$$",
".....+@@@@@@@@@@@@@@@@@@@@@@@@@@@@@@@@@@@@@@@@@@@+###########################+$$$$$$$$$$$$$$$$$$",
"....+@@@@@@@@@@@@@@@@@@@@@@@@@@@@@@@@@@@@@@@@@@@@@+#########################+$$$$$$$$$$$$$$$$$$$",
"....+@@@@@@@@@@@@@@@@@@@@@@@@@@@@@@@@@@@@@@@@@@@@@+#########################+$$$$$$$$$$$$$$$$$$$",
"++++@@@@@@@@@@@@@@@@@@@@@@@@@@@@@@@@@@@@@@@@@@@@@@@+++++++++++++++++++++++++$$$$$$$$$$$$$$$$$$$$",
"%%%%+@@@@@@@@@@@@@@@@@@@@@@@@@@@@@@@@@@@@@@@@@@@@@+#########################+$$$$$$$$$$$$$$$$$$$",
"%%%%+@@@@@@@@@@@@@@@@@@@@@@@@@@@@@@@@@@@@@@@@@@@@@+#########################+$$$$$$$$$$$$$$$$$$$",
"%%%%%+@@@@@@@@@@@@@@@@@@@@@@@@@@@@@@@@@@@@@@@@@@@+###########################+$$$$$$$$$$$$$$$$$$",
"%%%%%+@@@@@@@@@@@@@@@@@@@@@@@@@@@@@@@@@@@@@@@@@@@+###########################+$$$$$$$$$$$$$$$$$$",
"%%%%%%+@@@@@@@@@@@@@@@@@@@@@@@@@@@@@@@@@@@@@@@@@+###########&&&&&&&&##########+$$$$$$$$$$$$$$$$$",
"%%%%%%+@@@@@@@@@@@@@@@@@@@@@@@@@@@@@@@@@@@@@@@@@+########&&&&&&&&&&&&&&#######+$$$$$$$$$$$$$$$$$",
"%%%%%%%+@@@@@@@@@@@@@@@@@@@@@@@@@@@@@@@@@@@@@@@+#######&&&&&########&&&&&######+$$$$$$$$$$$$$$$$",
"%%%%%%%%+@@@@@@@@@@@@@@@@@@@@@@@@@@@@@@@@@@@@@+#######&#&##############&#&######+$$$$$$$$$$$$$$$",
"%%%%%%%%+@@@@@@@@@@@@@@@@@@@@@@@@@@@@@@@@@@@@@+######&&&################&&&#####+$$$$$$$$$$$$$$$",
"%%%%%%%%%+@@@@@@@@@@@@@@@@@@@@@@@@@@@@@@@@@@@+######&&####################&&#####+$$$$$$$$$$$$$$",
"%%%%%%%%%+@@@@@@@@@@@@@@@@@@@@@@@@@@@@@@@@@@@+#####&&######################&&####+$$$$$$$$$$$$$$",
"%%%%%%%%%%+@@@@@@@@@@@@@@@@@@@@@@@@@@@@@@@@@+#####&&########################&&####+$$$$$$$$$$$$$",
"%%%%%%%%%%+@@@@@@@@@@@@@@@@@@@@@@@@@@@@@@@@@+####&#&########################&#&###+$$$$$$$$$$$$$",
"%%%%%%%%%%%+@@@@@@@@@@@@@@@@@@@@@@@@@@@@@@@+#####&&##########################&&####+$$$$$$$$$$$$",
"%%%%%%%%%%%%+@@@@@@@@@@@@@@@@@@@@@@@@@@@@@+#####&&############################&&####+$$$$$$$$$$$",
"%%%%%%%%%%%%+@@@@@@@@@@@@@@@@@@@@@@@@@@@@@+#####&&############################&&####+$$$$$$$$$$$",
"%%%%%%%%%%%%%+@@@@@@@@@@@@@@@@@@@@@@@@@@@+######&&############################&&#####+$$$$$$$$$$",
"%%%%%%%%%%%%%+@@@@@@@@@@@@@@@@@@@@@@@@@@@+#####&&##############################&&####+$$$$$$$$$$",
"%%%%%%%%%%%%%%+@@@@@@@@@@@@@@@@@@@@@@@@@+######&&#############****#############&&#####+$$$$$$$$$",
"%%%%%%%%%%%%%%+@@@@@@@@@@@@@@@@@@@@@@@@@+######&&############******############&&#####+$$$$$$$$$",
"%%%%%%%%%%%%%%%+++++++++++++++++++++++++#######&&############**&***############&&######+++++++++",
"%%%%%%%%%%%%%%+@@@@@@@@@@@@@@@@@@@@@@@@@+######&&##########**&&****############&&#####+$$$$$$$$$",
"%%%%%%%%%%%%%%+@@@@@@@@@@@@@@@@@@@@@@@@@+######&&########**&&******############&&#####+$$$$$$$$$",
"%%%%%%%%%%%%%+@@@@@@@@@@@@@@@@@@@@@@@@@@@+#####&&######**&&*##****#############&&####+$$$$$$$$$$",
"%%%%%%%%%%%%%+@@@@@@@@@@@@@@@@@@@@@@@@@@@+#####&&####**&&*#####################&&####+$$$$$$$$$$",
"%%%%%%%%%%%%+@@@@@@@@@@@@@@@@@@@@@@@@@@@@@+#####&&#**&&*######################&&####+$$$$$$$$$$$",
"%%%%%%%%%%%%+@@@@@@@@@@@@@@@@@@@@@@@@@@@@@+#####&&*&&*########################&&####+$$$$$$$$$$$",
"%%%%%%%%%%%+@@@@@@@@@@@@@@@@@@@@@@@@@@@@@@@+###*&&&*##########################&&###+$$$$$$$$$$$$",
"%%%%%%%%%%+@@@@@@@@@@@@@@@@@@@@@@@@@@@@@@@@@+#*&&&&##########################&&###+$$$$$$$$$$$$$",
"%%%%%%%%%%+@@@@@@@@@@@@@@@@@@@@@@@@@@@@@@@@@+#&*#&#&########################&#&###+$$$$$$$$$$$$$",
"%%%%%%%%%+@@@@@@@@@@@@@@@@@@@@@@@@@@@@@@@@@@@+####&&########################&&###+$$$$$$$$$$$$$$",
"%%%%%%%%%+@@@@@@@@@@@@@@@@@@@@@@@@@@@@@@@@@@@+#####&&######################&&####+$$$$$$$$$$$$$$",
"%%%%%%%%+@@@@@@@@@@@@@@@@@@@@@@@@@@@@@@@@@@@@@+#####&&####################&&####+$$$$$$$$$$$$$$$",
"%%%%%%%%+@@@@@@@@@@@@@@@@@@@@@@@@@@@@@@@@@@@@@+######&&&################&&&#####+$$$$$$$$$$$$$$$",
"%%%%%%%+@@@@@@@@@@@@@@@@@@@=@@@@@@@@@@@@@@@@@@@+######&#&##############&#&#####+$$$$$$$$$$$$$$$$",
"%%%%%%+@@@@@@@@@@@@@@@@@=======@@@@@@@@@@@@@@@@@+######&&&&&########&&&&&#####+$$$$$$$$$$$$$$$$$",
"%%%%%%+@@@@@@@@@@@@@@@@=========@@@@@@@@@@@@@@@@+########&&&&&&&&&&&&&&#######+$$$$$$$$$$$$$$$$$",
"%%%%%+@@@@@@@@@@@@@@@@===========@@@@@@@@@@@@@@@@+##########&&&&&&&&#########+$$$$$$$$$$$$$$$$$$",
"%%%%%+@@@@@@@@@@@@@@@=============@@@@@@@@@@@@@@@+###########################+$$$$$$$$$$$$$$$$$$",
"%%%%+@@@@@@@@@@@@@@@@=============@@@@@@@@@@@@@@@@+#########################+$$$$$$$$$$$$$$$$$$$",
"%%%%+@@@@@@@@@@@@@@@@=============@@@@@@@@@@@@@@@@+#########################+$$$$$$$$$$$$$$$$$$$",
"++++@@@@@@@@@@@@@@@@==============@@@@@@@@@@@@@@@@@+++++++++++++++++++++++++$$$$$$$$$$$$$$$$$$$$",
"@@@@+@@@@@@@@@@@@@@@@=============@@@@@@@@@@@@@@@@+#########################+$$$$$$$$$$$$$$$$$$$",
"@@@@+@@@@@@@@@@@@@@@@=============@@@@@@@@@@@@@@@@+#########################+$$$$$$$$$$$$$$$$$$$",
"@@@@@+@@@@@@@@@@@@@@@=============@@@@@@@@@@@@@@@+###########################+$$$$$$$$$$$$$$$$$$",
"@@@@@+@@@@@@@@@@@@@@@@===========@@@@@@@@@@@@@@@@+###########################+$$$$$$$$$$$$$$$$$$",
"@@@@@@+@@@@@@@@@@@@@@@@=========@@@@@@@@@@@@@@@@+#############################+$$$$$$$$$$$$$$$$$",
"@@@@@@+@@@@@@@@@@@@@@@@@=======@@@@@@@@@@@@@@@@@+#############################+$$$$$$$$$$$$$$$$$",
"@@@@@@@+@@@@@@@@@@@@@@@@@@@@@@@@@@@@@@@@@@@@@@@+###############################+$$$$$$$$$$$$$$$$",
"@@@@@@@@+@@@@@@@@@@@@@@@@@@@@@@@@@@@@@@@@@@@@@+#################################+$$$$$$$$$$$$$$$",
"@@@@@@@@+@@@@@@@@@@@@@@@@@@@@@@@@@@@@@@@@@@@@@+#################################+$$$$$$$$$$$$$$$",
"@@@@@@@@@+@@@@@@@@@@@@@@@@@@@@@@@@@@@@@@@@@@@+###################################+$$$$$$$$$$$$$$",
"@@@@@@@@@+@@@@@@@@@@@@@@@@@@@@@@@@@@@@@@@@@@@+###################################+$$$$$$$$$$$$$$",
"==@@@@@=+@+@@@@@@@@@@@@@@@@@@@@@@@@@@@@@@@@@+#####################################+$$$$$$$$$$$$$",
"==@@@=++=@+@@@@@@@@@@@@@@@@@@@@@@@@@@@@@@@@@+#####################################+$$$$$$$$$$$$$",
"====++==@@@+@@@@@@@@@@@@@@@@@@@@@@@@@@@@@@@+#######################################+$$$$$$$$$$$$",
"==++==@@@@@@+@@@@@@@@@@@@@@@@@@@@@@@@@@@@@+#########################################+$$$$$$$$$$$",
"++==@@@@@@@@+@@@@@@@@@@@@@@@@@@@@@@@@@@@@@+#########################################+$$$$$$$$$$$",
"=====@@@@@@@@+@@@@@@@@@@@@@@@@@@@@@@@@@@@+###########################################+$$$$$$$$$$",
"=====@@@@@@@@+@@@@@@@@@@@@@@@@@@@@@@@@@@@+###########################################+$$$$$$$$$$",
"=====@@@@@@@@@+@@@@@@@@@@@@@@@@@@@@@@@@@+#############################################+$$$$$$$$$",
"=====@@@@@@@@@+@@@@@@@@@@@@@@@@@@@@@@@@@+######################*######################+$$$$$$$$$",
"=====@@@@@@@@@@+++++++++++++++++++++++++#####################**&*######################+++++++++",
"=====@@@@@@@@@+###########=+=###########+##################**&&*######################+#########",
"=====@@@@@@@@@+###########=+=###########+################**&&*########################+#########",
"=====@@@@@@@@+############=+=############+#############**&&*#########################+##########",
"=====@@@@@@@@+############=+=############+#############&&*###########################+##########",
"=====@@@@@@@+#############=+=#############+#########################################+###########",
"====@@@@@@@@+#############=+=#############+#########################################+########&&&",
"====@@@@@@@+##############=+=##############+#######################################+#######&&&&&",
"===@@@@@@@+###############=+=###############+#####################################+#######&#&###",
"==@@@@@@@@+###############=+=###############+#####################################+######&&&####",
"==@@@@@@++################=+=################+###################################+######&&######",
"@@@@@@@@@+################=+=################+###################################+#####&&#######",
"@@@@@@@@+#################=+=#################+#################################+#####&&########",
"@@@@@@@@+#################=+=#################+#################################+####&#&########",
"@@@@@@@+##################=+=##################+###############################+#####&&#########",
"@@@@@@+###################=+=###################+#############################+#####&&##########",
"@@@@@@+###################=+=###################+#############################+#####&&##########",
"@@@@@+####################=+=####################+###########################+######&&##########",
"@@@@@+####################=+=####################+###########################+#####&&###########",
"@@@@+#####################=+=#####################+#########################+######&&###########",
"@@@@+#####################=+==####################+#########################+######&&###########",
"++++######################=+==#####################+++++++++++++++++++++++++#######&&###########",
"####+#####################====####################+#########################+######&&##########*",
"####+#####################====####################+##=###################*##+######&&########**&",
"#####+###########################################+####=#################*####+#####&&######**&&*",
"#####+###########################################+####=#################*####+#####&&####**&&*##",
"######+#########################################+######=###############*######+#####&&#**&&*####"};
